G04 MADE WITH FRITZING*
G04 WWW.FRITZING.ORG*
G04 DOUBLE SIDED*
G04 HOLES PLATED*
G04 CONTOUR ON CENTER OF CONTOUR VECTOR*
%ASAXBY*%
%FSLAX23Y23*%
%MOIN*%
%OFA0B0*%
%SFA1.0B1.0*%
%ADD10C,0.084000*%
%ADD11C,0.088000*%
%ADD12C,0.049370*%
%ADD13C,0.072992*%
%ADD14C,0.085000*%
%ADD15R,0.084000X0.084000*%
%ADD16R,0.072992X0.072992*%
%LNMASK1*%
G90*
G70*
G54D10*
X2789Y818D03*
X2689Y818D03*
X2589Y818D03*
X2489Y818D03*
X2389Y818D03*
X2289Y818D03*
X2189Y818D03*
X2089Y818D03*
X1989Y818D03*
X1889Y818D03*
X1789Y818D03*
X1689Y818D03*
X1589Y818D03*
X1489Y818D03*
X1389Y818D03*
X1289Y818D03*
X1189Y818D03*
X2789Y918D03*
X2689Y918D03*
X2589Y918D03*
X2489Y918D03*
X2389Y918D03*
X2289Y918D03*
X2189Y918D03*
X2089Y918D03*
X1989Y918D03*
X1889Y918D03*
X1789Y918D03*
X1689Y918D03*
X1589Y918D03*
X1489Y918D03*
X1389Y918D03*
X1289Y918D03*
X1189Y918D03*
G54D11*
X2689Y2318D03*
X2689Y2218D03*
X2689Y2118D03*
X2789Y2318D03*
X2789Y2218D03*
X2789Y2118D03*
X2989Y2318D03*
X2989Y2218D03*
X2989Y2118D03*
X2889Y2318D03*
X2889Y2218D03*
X2889Y2118D03*
X3589Y718D03*
X3689Y718D03*
X3789Y718D03*
X3589Y818D03*
X3689Y818D03*
X3789Y818D03*
X3589Y2018D03*
X3689Y2018D03*
X3789Y2018D03*
X3589Y1918D03*
X3689Y1918D03*
X3789Y1918D03*
X3589Y1818D03*
X3689Y1818D03*
X3789Y1818D03*
X3589Y1718D03*
X3689Y1718D03*
X3789Y1718D03*
X3589Y1618D03*
X3689Y1618D03*
X3789Y1618D03*
X3589Y1518D03*
X3689Y1518D03*
X3789Y1518D03*
X3589Y1418D03*
X3689Y1418D03*
X3789Y1418D03*
X3589Y1318D03*
X3689Y1318D03*
X3789Y1318D03*
X3589Y1218D03*
X3689Y1218D03*
X3789Y1218D03*
X3589Y1118D03*
X3689Y1118D03*
X3789Y1118D03*
X2189Y518D03*
X2289Y518D03*
X2389Y518D03*
X289Y2318D03*
X289Y2218D03*
X289Y2118D03*
X289Y2018D03*
X789Y2318D03*
X789Y2218D03*
X789Y2118D03*
X889Y2318D03*
X889Y2218D03*
X889Y2118D03*
X989Y2318D03*
X989Y2218D03*
X989Y2118D03*
X1089Y2318D03*
X1089Y2218D03*
X1089Y2118D03*
X1189Y2318D03*
X1189Y2218D03*
X1189Y2118D03*
X1289Y2318D03*
X1289Y2218D03*
X1289Y2118D03*
X1389Y2318D03*
X1389Y2218D03*
X1389Y2118D03*
X1489Y2318D03*
X1489Y2218D03*
X1489Y2118D03*
X1589Y2318D03*
X1589Y2218D03*
X1589Y2118D03*
X1689Y2318D03*
X1689Y2218D03*
X1689Y2118D03*
X1789Y2318D03*
X1789Y2218D03*
X1789Y2118D03*
X1889Y2318D03*
X1889Y2218D03*
X1889Y2118D03*
X1989Y2318D03*
X1989Y2218D03*
X1989Y2118D03*
X2089Y2318D03*
X2089Y2218D03*
X2089Y2118D03*
X2189Y2318D03*
X2189Y2218D03*
X2189Y2118D03*
X2289Y2318D03*
X2289Y2218D03*
X2289Y2118D03*
G54D12*
X589Y2118D03*
X489Y2018D03*
X1189Y218D03*
X1289Y318D03*
X1589Y418D03*
X1789Y518D03*
X1989Y618D03*
X889Y918D03*
X789Y918D03*
X689Y918D03*
X589Y918D03*
X489Y918D03*
X3289Y2318D03*
X3089Y2318D03*
X2289Y1118D03*
X3389Y1118D03*
X3389Y1218D03*
X3389Y1318D03*
X3389Y1418D03*
X3389Y1518D03*
X3389Y1618D03*
X3389Y1718D03*
X3389Y1818D03*
X3389Y1918D03*
X3389Y2018D03*
X2189Y1218D03*
X2089Y1318D03*
X1989Y1418D03*
X1489Y1518D03*
X1389Y1618D03*
X1289Y1718D03*
X1189Y1818D03*
X1089Y1918D03*
X989Y2018D03*
G54D13*
X289Y1716D03*
X289Y1618D03*
G54D14*
X289Y1418D03*
X289Y1018D03*
G54D15*
X2789Y918D03*
G54D16*
X289Y1716D03*
G04 End of Mask1*
M02*