; NON-PLATED HOLES START AT T1
; THROUGH (PLATED) HOLES START AT T100
M48
INCH
T100C0.040000
T101C0.015748
T102C0.035000
T103C0.031497
T104C0.038000
%
T100
X021892Y008178
X023892Y008178
X020892Y008178
X022892Y008178
X024892Y008178
X026892Y008178
X025892Y008178
X027892Y008178
X011892Y009178
X013892Y009178
X012892Y009178
X014892Y009178
X016892Y009178
X018892Y009178
X015892Y009178
X017892Y009178
X019892Y009178
X021892Y009178
X023892Y009178
X020892Y009178
X022892Y009178
X024892Y009178
X026892Y009178
X025892Y009178
X027892Y009178
X011892Y008178
X013892Y008178
X012892Y008178
X014892Y008178
X016892Y008178
X018892Y008178
X015892Y008178
X017892Y008178
X019892Y008178
T101
X019892Y014178
X010892Y019178
X033892Y013178
X005892Y009178
X007892Y009178
X019892Y006178
X033892Y018178
X012892Y017178
X033892Y011178
X015892Y004178
X033892Y016178
X005892Y021178
X011892Y002178
X021892Y012178
X014892Y015178
X033892Y014178
X033892Y019178
X011892Y018178
X033892Y020178
X033892Y012178
X017892Y005178
X033892Y017178
X013892Y016178
X012892Y003178
X020892Y013178
X004892Y020178
X033892Y015178
X030892Y023178
X032892Y023178
X009892Y020178
X004892Y009178
X006892Y009178
X008892Y009178
X022892Y011178
T102
X002892Y014178
X002892Y010178
T103
X002892Y017162
X002892Y016178
T104
X022892Y021178
X016892Y022178
X019892Y023178
X035892Y011178
X028892Y023178
X007892Y021178
X002892Y023178
X036892Y015178
X035892Y007178
X016892Y021178
X011892Y023178
X020892Y023178
X019892Y022178
X037892Y019178
X023892Y005178
X028892Y022178
X002892Y022178
X036892Y014178
X011892Y022178
X020892Y022178
X019892Y021178
X014892Y023178
X037892Y018178
X028892Y021178
X002892Y021178
X036892Y013178
X011892Y021178
X020892Y021178
X014892Y022178
X008892Y023178
X037892Y017178
X017892Y023178
X002892Y020178
X037892Y020178
X026892Y023178
X036892Y012178
X014892Y021178
X008892Y022178
X037892Y016178
X036892Y008178
X017892Y022178
X035892Y019178
X021892Y005178
X026892Y022178
X036892Y011178
X029892Y023178
X008892Y021178
X037892Y015178
X036892Y007178
X017892Y021178
X012892Y023178
X035892Y018178
X021892Y023178
X026892Y021178
X029892Y022178
X037892Y014178
X012892Y022178
X035892Y017178
X015892Y023178
X021892Y022178
X035892Y020178
X029892Y021178
X037892Y013178
X012892Y021178
X035892Y016178
X015892Y022178
X009892Y023178
X021892Y021178
X018892Y023178
X027892Y023178
X037892Y012178
X035892Y015178
X015892Y021178
X010892Y023178
X009892Y022178
X037892Y008178
X018892Y022178
X022892Y005178
X036892Y019178
X027892Y022178
X037892Y011178
X035892Y014178
X010892Y022178
X009892Y021178
X037892Y007178
X018892Y021178
X013892Y023178
X036892Y018178
X022892Y023178
X027892Y021178
X035892Y013178
X010892Y021178
X007892Y023178
X013892Y022178
X036892Y017178
X022892Y022178
X016892Y023178
X035892Y012178
X036892Y020178
X007892Y022178
X013892Y021178
X036892Y016178
X035892Y008178
T00
M30
