G04 MADE WITH FRITZING*
G04 WWW.FRITZING.ORG*
G04 DOUBLE SIDED*
G04 HOLES PLATED*
G04 CONTOUR ON CENTER OF CONTOUR VECTOR*
%ASAXBY*%
%FSLAX23Y23*%
%MOIN*%
%OFA0B0*%
%SFA1.0B1.0*%
%ADD10C,0.074000*%
%ADD11C,0.078000*%
%ADD12C,0.039370*%
%ADD13C,0.062992*%
%ADD14C,0.075000*%
%ADD15R,0.074000X0.074000*%
%ADD16R,0.062992X0.062992*%
%ADD17C,0.024000*%
%LNCOPPER0*%
G90*
G70*
G54D10*
X2789Y818D03*
X2689Y818D03*
X2589Y818D03*
X2489Y818D03*
X2389Y818D03*
X2289Y818D03*
X2189Y818D03*
X2089Y818D03*
X1989Y818D03*
X1889Y818D03*
X1789Y818D03*
X1689Y818D03*
X1589Y818D03*
X1489Y818D03*
X1389Y818D03*
X1289Y818D03*
X1189Y818D03*
X2789Y918D03*
X2689Y918D03*
X2589Y918D03*
X2489Y918D03*
X2389Y918D03*
X2289Y918D03*
X2189Y918D03*
X2089Y918D03*
X1989Y918D03*
X1889Y918D03*
X1789Y918D03*
X1689Y918D03*
X1589Y918D03*
X1489Y918D03*
X1389Y918D03*
X1289Y918D03*
X1189Y918D03*
G54D11*
X2689Y2318D03*
X2689Y2218D03*
X2689Y2118D03*
X2789Y2318D03*
X2789Y2218D03*
X2789Y2118D03*
X2989Y2318D03*
X2989Y2218D03*
X2989Y2118D03*
X2889Y2318D03*
X2889Y2218D03*
X2889Y2118D03*
X3589Y718D03*
X3689Y718D03*
X3789Y718D03*
X3589Y818D03*
X3689Y818D03*
X3789Y818D03*
X3589Y2018D03*
X3689Y2018D03*
X3789Y2018D03*
X3589Y1918D03*
X3689Y1918D03*
X3789Y1918D03*
X3589Y1818D03*
X3689Y1818D03*
X3789Y1818D03*
X3589Y1718D03*
X3689Y1718D03*
X3789Y1718D03*
X3589Y1618D03*
X3689Y1618D03*
X3789Y1618D03*
X3589Y1518D03*
X3689Y1518D03*
X3789Y1518D03*
X3589Y1418D03*
X3689Y1418D03*
X3789Y1418D03*
X3589Y1318D03*
X3689Y1318D03*
X3789Y1318D03*
X3589Y1218D03*
X3689Y1218D03*
X3789Y1218D03*
X3589Y1118D03*
X3689Y1118D03*
X3789Y1118D03*
X2189Y518D03*
X2289Y518D03*
X2389Y518D03*
X289Y2318D03*
X289Y2218D03*
X289Y2118D03*
X289Y2018D03*
X789Y2318D03*
X789Y2218D03*
X789Y2118D03*
X889Y2318D03*
X889Y2218D03*
X889Y2118D03*
X989Y2318D03*
X989Y2218D03*
X989Y2118D03*
X1089Y2318D03*
X1089Y2218D03*
X1089Y2118D03*
X1189Y2318D03*
X1189Y2218D03*
X1189Y2118D03*
X1289Y2318D03*
X1289Y2218D03*
X1289Y2118D03*
X1389Y2318D03*
X1389Y2218D03*
X1389Y2118D03*
X1489Y2318D03*
X1489Y2218D03*
X1489Y2118D03*
X1589Y2318D03*
X1589Y2218D03*
X1589Y2118D03*
X1689Y2318D03*
X1689Y2218D03*
X1689Y2118D03*
X1789Y2318D03*
X1789Y2218D03*
X1789Y2118D03*
X1889Y2318D03*
X1889Y2218D03*
X1889Y2118D03*
X1989Y2318D03*
X1989Y2218D03*
X1989Y2118D03*
X2089Y2318D03*
X2089Y2218D03*
X2089Y2118D03*
X2189Y2318D03*
X2189Y2218D03*
X2189Y2118D03*
X2289Y2318D03*
X2289Y2218D03*
X2289Y2118D03*
G54D12*
X589Y2118D03*
X489Y2018D03*
X1189Y218D03*
X1289Y318D03*
X1589Y418D03*
X1789Y518D03*
X1989Y618D03*
X889Y918D03*
X789Y918D03*
X689Y918D03*
X589Y918D03*
X489Y918D03*
X3289Y2318D03*
X3089Y2318D03*
X2289Y1118D03*
X3389Y1118D03*
X3389Y1218D03*
X3389Y1318D03*
X3389Y1418D03*
X3389Y1518D03*
X3389Y1618D03*
X3389Y1718D03*
X3389Y1818D03*
X3389Y1918D03*
X3389Y2018D03*
X2189Y1218D03*
X2089Y1318D03*
X1989Y1418D03*
X1489Y1518D03*
X1389Y1618D03*
X1289Y1718D03*
X1189Y1818D03*
X1089Y1918D03*
X989Y2018D03*
G54D13*
X289Y1716D03*
X289Y1618D03*
G54D14*
X289Y1418D03*
X289Y1018D03*
G54D15*
X2789Y918D03*
G54D16*
X289Y1716D03*
G54D17*
X859Y2218D02*
X819Y2218D01*
D02*
X959Y2218D02*
X919Y2218D01*
D02*
X1059Y2218D02*
X1019Y2218D01*
D02*
X1159Y2218D02*
X1119Y2218D01*
D02*
X1259Y2218D02*
X1219Y2218D01*
D02*
X1359Y2218D02*
X1319Y2218D01*
D02*
X1459Y2218D02*
X1419Y2218D01*
D02*
X1559Y2218D02*
X1519Y2218D01*
D02*
X1659Y2218D02*
X1619Y2218D01*
D02*
X1759Y2218D02*
X1719Y2218D01*
D02*
X1859Y2218D02*
X1819Y2218D01*
D02*
X1959Y2218D02*
X1919Y2218D01*
D02*
X2059Y2218D02*
X2019Y2218D01*
D02*
X2159Y2218D02*
X2119Y2218D01*
D02*
X2259Y2218D02*
X2219Y2218D01*
D02*
X2219Y2318D02*
X2259Y2318D01*
D02*
X2119Y2318D02*
X2159Y2318D01*
D02*
X2019Y2318D02*
X2059Y2318D01*
D02*
X1919Y2318D02*
X1959Y2318D01*
D02*
X1819Y2318D02*
X1859Y2318D01*
D02*
X1719Y2318D02*
X1759Y2318D01*
D02*
X1619Y2318D02*
X1659Y2318D01*
D02*
X1519Y2318D02*
X1559Y2318D01*
D02*
X1419Y2318D02*
X1459Y2318D01*
D02*
X1319Y2318D02*
X1359Y2318D01*
D02*
X1119Y2318D02*
X1159Y2318D01*
D02*
X1219Y2318D02*
X1259Y2318D01*
D02*
X1019Y2318D02*
X1059Y2318D01*
D02*
X919Y2318D02*
X959Y2318D01*
D02*
X819Y2318D02*
X859Y2318D01*
D02*
X1889Y2088D02*
X1889Y949D01*
D02*
X1789Y2088D02*
X1789Y949D01*
D02*
X1689Y2088D02*
X1689Y949D01*
D02*
X1589Y2088D02*
X1589Y949D01*
D02*
X319Y2318D02*
X759Y2318D01*
D02*
X319Y2218D02*
X759Y2218D01*
D02*
X1989Y637D02*
X1989Y787D01*
D02*
X1789Y537D02*
X1789Y787D01*
D02*
X1589Y437D02*
X1589Y787D01*
D02*
X1289Y337D02*
X1289Y787D01*
D02*
X1189Y237D02*
X1189Y787D01*
D02*
X882Y2089D02*
X594Y936D01*
D02*
X782Y2089D02*
X494Y936D01*
D02*
X319Y2118D02*
X570Y2118D01*
D02*
X319Y2018D02*
X470Y2018D01*
D02*
X92Y1018D02*
X92Y117D01*
D02*
X92Y2318D02*
X92Y1018D01*
D02*
X92Y117D02*
X1392Y117D01*
D02*
X1392Y117D02*
X1389Y787D01*
D02*
X259Y2318D02*
X91Y2318D01*
D02*
X2379Y788D02*
X2299Y546D01*
D02*
X2479Y788D02*
X2399Y546D01*
D02*
X3689Y1948D02*
X3689Y1988D01*
D02*
X3689Y1848D02*
X3689Y1888D01*
D02*
X3689Y1748D02*
X3689Y1788D01*
D02*
X3689Y1648D02*
X3689Y1688D01*
D02*
X3689Y1548D02*
X3689Y1588D01*
D02*
X3689Y1448D02*
X3689Y1488D01*
D02*
X3689Y1348D02*
X3689Y1388D01*
D02*
X3689Y1248D02*
X3689Y1288D01*
D02*
X3689Y1148D02*
X3689Y1188D01*
D02*
X3790Y2515D02*
X2287Y2515D01*
D02*
X2287Y2515D02*
X2289Y2348D01*
D02*
X3789Y2048D02*
X3790Y2515D01*
D02*
X3789Y1948D02*
X3789Y1988D01*
D02*
X3789Y1848D02*
X3789Y1888D01*
D02*
X3789Y1748D02*
X3789Y1788D01*
D02*
X3789Y1648D02*
X3789Y1688D01*
D02*
X3789Y1548D02*
X3789Y1588D01*
D02*
X3789Y1448D02*
X3789Y1488D01*
D02*
X3789Y1348D02*
X3789Y1388D01*
D02*
X3789Y1248D02*
X3789Y1288D01*
D02*
X3789Y1148D02*
X3789Y1188D01*
D02*
X3790Y618D02*
X2591Y618D01*
D02*
X2591Y618D02*
X2590Y787D01*
D02*
X3789Y688D02*
X3790Y618D01*
D02*
X3789Y788D02*
X3789Y748D01*
D02*
X2759Y2218D02*
X2719Y2218D01*
D02*
X2859Y2218D02*
X2819Y2218D01*
D02*
X2959Y2218D02*
X2919Y2218D01*
D02*
X3689Y748D02*
X3689Y788D01*
D02*
X2687Y719D02*
X3559Y718D01*
D02*
X2688Y787D02*
X2687Y719D01*
D02*
X2820Y818D02*
X3559Y818D01*
D02*
X3188Y2419D02*
X3689Y2419D01*
D02*
X3689Y2419D02*
X3689Y2048D01*
D02*
X3188Y917D02*
X3188Y2419D01*
D02*
X3689Y917D02*
X3689Y848D01*
D02*
X3188Y917D02*
X3689Y917D01*
D02*
X2820Y918D02*
X3188Y917D01*
D02*
X2682Y2089D02*
X2397Y948D01*
D02*
X2782Y2089D02*
X2497Y948D01*
D02*
X2882Y2089D02*
X2597Y948D01*
D02*
X2982Y2089D02*
X2697Y948D01*
D02*
X2319Y2218D02*
X2659Y2218D01*
D02*
X3289Y1018D02*
X3790Y1018D01*
D02*
X3790Y1018D02*
X3789Y848D01*
D02*
X3289Y2299D02*
X3289Y1018D01*
D02*
X2759Y2318D02*
X2719Y2318D01*
D02*
X2859Y2318D02*
X2819Y2318D01*
D02*
X2959Y2318D02*
X2919Y2318D01*
D02*
X3070Y2318D02*
X3019Y2318D01*
D02*
X2289Y1099D02*
X2289Y949D01*
D02*
X2289Y2088D02*
X2289Y1137D01*
D02*
X3559Y1118D02*
X3408Y1118D01*
D02*
X3559Y1218D02*
X3408Y1218D01*
D02*
X3559Y1318D02*
X3408Y1318D01*
D02*
X3559Y1418D02*
X3408Y1418D01*
D02*
X3559Y1518D02*
X3408Y1518D01*
D02*
X3559Y1618D02*
X3408Y1618D01*
D02*
X3559Y1718D02*
X3408Y1718D01*
D02*
X3559Y1818D02*
X3408Y1818D01*
D02*
X3559Y1918D02*
X3408Y1918D01*
D02*
X3559Y2018D02*
X3408Y2018D01*
D02*
X2189Y1199D02*
X2189Y949D01*
D02*
X2089Y1299D02*
X2089Y949D01*
D02*
X1989Y1399D02*
X1989Y949D01*
D02*
X1989Y2088D02*
X1989Y1437D01*
D02*
X2089Y2088D02*
X2089Y1337D01*
D02*
X2189Y2088D02*
X2189Y1237D01*
D02*
X1489Y1499D02*
X1489Y949D01*
D02*
X1489Y1537D02*
X1489Y2088D01*
D02*
X1389Y1599D02*
X1389Y949D01*
D02*
X1389Y1637D02*
X1389Y2088D01*
D02*
X1289Y1699D02*
X1289Y949D01*
D02*
X1289Y1737D02*
X1289Y2088D01*
D02*
X989Y2037D02*
X989Y2088D01*
D02*
X1089Y1937D02*
X1089Y2088D01*
D02*
X1189Y1837D02*
X1189Y2088D01*
D02*
X694Y936D02*
X984Y2000D01*
D02*
X795Y936D02*
X1084Y1900D01*
D02*
X895Y936D02*
X1183Y1800D01*
D02*
X92Y1018D02*
X261Y1018D01*
D02*
X289Y1446D02*
X289Y1591D01*
D02*
X187Y1716D02*
X262Y1716D01*
D02*
X187Y2217D02*
X187Y1716D01*
D02*
X259Y2218D02*
X187Y2217D01*
D02*
X2189Y787D02*
X2189Y548D01*
G04 End of Copper0*
M02*